<svg width="32" height="32" viewBox="0 0 38 38" fill="none" xmlns="http://www.w3.org/2000/svg">
<g filter="url(#filter0_dd_5327_28826)">
<path d="M35 10.0001C35 9.4407 34.6249 8.96569 34.0931 8.76881L20.333 2.29688H20.3058C19.9137 2.1125 19.4739 2 18.9999 2C18.5261 2 18.0862 2.1125 17.6942 2.29688H17.6669L3.90687 8.76881C3.37502 8.96569 3 9.4407 3 10.0001C3 10.5532 3.3682 11.0282 3.89665 11.2313V11.2563L17.6771 17.7095L17.6908 17.7033C18.0862 17.8876 18.5261 18.0001 18.9999 18.0001C19.4739 18.0001 19.9137 17.8876 20.3092 17.7033L20.3228 17.7095L34.1032 11.2563V11.2313C34.6318 11.0282 35 10.5532 35 10.0001Z" fill="#3538CD"/>
<path d="M34.0931 16.7688L31.3997 15.5C27.1721 17.4844 21.407 20.1813 21.3387 20.2063C20.5887 20.5126 19.8046 20.6656 18.9999 20.6656C18.1919 20.6656 17.4044 20.5095 16.6544 20.2032C16.5896 20.1813 10.8278 17.4844 6.60024 15.5L3.90687 16.7688C3.37502 16.9656 3 17.4406 3 18C3 18.5531 3.3682 19.0281 3.89665 19.2313V19.2563L17.6771 25.7094L17.6908 25.7032C18.0862 25.8876 18.5261 26 18.9999 26C19.4739 26 19.9137 25.8876 20.3092 25.7032L20.3228 25.7094L34.1032 19.2563V19.2313C34.6318 19.0281 35 18.5531 35 18C35 17.4406 34.6249 16.9656 34.0931 16.7688Z" fill="#6172F3"/>
<path d="M34.0931 24.7688L31.3997 23.5C27.1721 25.4844 21.407 28.1813 21.3387 28.2063C20.5887 28.5125 19.8046 28.6656 18.9999 28.6656C18.1919 28.6656 17.4044 28.5093 16.6544 28.2032C16.5896 28.1813 10.8278 25.4844 6.60024 23.5L3.90687 24.7688C3.37502 24.9656 3 25.4406 3 26C3 26.5531 3.3682 27.0281 3.89665 27.2313V27.2563L17.6771 33.7094L17.6908 33.7032C18.0862 33.8876 18.5261 34 18.9999 34C19.4739 34 19.9137 33.8876 20.3092 33.7032L20.3228 33.7094L34.1032 27.2563V27.2313C34.6318 27.0281 35 26.5531 35 26C35 25.4406 34.6249 24.9656 34.0931 24.7688Z" fill="#8098F9"/>
</g>
<defs>
<filter id="filter0_dd_5327_28826" x="0" y="0" filterUnits="userSpaceOnUse" color-interpolation-filters="sRGB">
<feFlood flood-opacity="0" result="BackgroundImageFix"/>
<feColorMatrix in="SourceAlpha" type="matrix" values="0 0 0 0 0 0 0 0 0 0 0 0 0 0 0 0 0 0 127 0" result="hardAlpha"/>
<feOffset dy="1"/>
<feGaussianBlur stdDeviation="1"/>
<feColorMatrix type="matrix" values="0 0 0 0 0.0627451 0 0 0 0 0.0941176 0 0 0 0 0.156863 0 0 0 0.06 0"/>
<feBlend mode="normal" in2="BackgroundImageFix" result="effect1_dropShadow_5327_28826"/>
<feColorMatrix in="SourceAlpha" type="matrix" values="0 0 0 0 0 0 0 0 0 0 0 0 0 0 0 0 0 0 127 0" result="hardAlpha"/>
<feOffset dy="1"/>
<feGaussianBlur stdDeviation="1.5"/>
<feColorMatrix type="matrix" values="0 0 0 0 0.0627451 0 0 0 0 0.0941176 0 0 0 0 0.156863 0 0 0 0.1 0"/>
<feBlend mode="normal" in2="effect1_dropShadow_5327_28826" result="effect2_dropShadow_5327_28826"/>
<feBlend mode="normal" in="SourceGraphic" in2="effect2_dropShadow_5327_28826" result="shape"/>
</filter>
</defs>
</svg>
